<svg width="1280" height="731" viewBox="0 0 1280 731" fill="none" xmlns="http://www.w3.org/2000/svg"><path d="M862.001 335.945C862 339.09 862 341.743 862 344.724C868.612 345.83 875.095 346.919 881.579 347.998C892.739 349.856 903.896 351.733 915.064 353.539C917.003 353.853 918.996 353.816 920.957 354.008C925.451 354.448 927.138 356.997 926.201 361.562C925.905 363.006 926.007 364.54 926.007 366.033C925.997 400.858 926.001 435.683 925.994 470.508C925.993 476.441 924.986 476.886 919.348 474.799C901.524 468.199 883.704 461.571 865.729 455.402C852.741 450.944 839.511 447.19 826.376 443.161C825.609 442.926 824.687 443.203 823.917 442.973C817.797 441.148 815.885 441.628 815.945 433.885C816.106 412.891 816.046 391.895 815.962 370.9C815.946 366.793 816.75 365.403 821.448 366.608C832.664 369.483 844.054 371.711 855.426 373.931C859.381 374.703 861.043 376.658 861.023 380.574C860.962 393.071 861.067 405.569 860.96 418.065C860.928 421.799 861.955 423.584 866.138 424.182C870.974 424.873 875.614 426.934 881 428.605C881 420.607 881 413.327 881 406.048C881 395.883 881.001 385.719 881 375.555C881 370.108 879.665 368.904 874.191 367.953C863.866 366.157 853.599 364.026 843.293 362.117C835.516 360.677 827.668 359.578 819.966 357.826C818.385 357.467 816.181 354.894 816.168 353.326C815.935 326.167 816.01 299.007 815.987 271.846C815.984 268.576 817.434 266.986 820.755 266.988C854.247 267.007 887.739 267.004 921.231 266.992C924.556 266.991 926.112 268.112 926.083 271.898C925.913 293.892 926.006 315.887 925.994 337.882C925.992 342.773 924.731 343.744 920.075 342.992C907.157 340.907 894.224 338.914 881 336.838C881 325.155 880.847 313.682 881.084 302.217C881.165 298.317 879.702 296.914 876.047 296.981C871.567 297.063 867.085 297 862.001 297C862.001 309.937 862.001 322.695 862.001 335.945Z" fill="white"/><path d="M326.809 386.562C321.401 392.446 315.871 397.766 311.001 403.634C306.315 409.279 300.091 411.292 293.459 413.053C288.081 414.482 282.744 416.171 277.589 418.241C276.587 418.643 276.072 421.335 276.065 422.974C275.969 446.136 275.96 469.299 276.043 492.461C276.055 495.934 275.529 498.231 271.771 499.944C260.751 504.969 250.015 510.615 239.165 516.011C238.878 516.154 238.553 516.217 238.248 516.322C235.962 517.111 233.677 517.902 231.391 518.692C230.928 516.178 230.205 513.679 230.062 511.147C229.836 507.166 230 503.163 230 499.169C230 481.006 229.919 462.842 230.015 444.679C230.307 389.313 230.667 333.947 231.001 278.581C231.003 278.248 231.006 277.915 231 277.582C230.807 267 230.807 267 241.81 267C272.638 267 303.466 267.086 334.292 266.914C339.342 266.886 341.473 268.197 341.044 273.897C340.525 280.8 340.044 287.728 340.073 294.644C340.109 303.561 340.982 312.479 340.932 321.393C340.84 337.644 340.836 353.93 339.642 370.116C339.348 374.1 334.721 377.841 331.869 381.527C330.498 383.298 328.623 384.679 326.809 386.562ZM296 324.5C296 316.667 296.145 308.828 295.863 301.005C295.813 299.637 294.041 297.261 292.935 297.183C287.368 296.789 281.759 297.002 275.589 297.002C275.589 327.929 275.589 358.244 275.589 388.271C284.579 389.054 288.56 382.289 293.593 377.543C295.19 376.038 295.865 372.903 295.898 370.499C296.1 355.501 296 340.5 296 324.5Z" fill="white"/><path d="M421 403.001C421 395.794 421 389.087 421 382.198C412.753 384.1 405.617 385.745 398 387.502C398 388.974 398 390.772 398 392.57C398 410.06 398 427.549 398 445.039C398.001 448.682 397.475 450.929 392.831 452.287C380.914 455.773 369.349 460.47 357.672 464.763C354.318 465.996 352.184 464.759 352.005 461.194C351.971 460.53 352 459.862 352 459.196C352 397.4 351.999 335.604 352.002 273.809C352.002 267.405 352.404 267.002 358.787 267.002C392.267 266.998 425.746 266.998 459.226 267.002C465.601 267.003 465.998 267.403 465.998 273.822C466.001 324.458 466.004 375.094 465.995 425.729C465.994 432.112 463.889 434.058 457.755 435.086C451.114 436.2 444.566 437.908 438.017 439.519C433.974 440.514 430.048 442.004 425.99 442.917C422.616 443.677 420.838 442.503 420.918 438.478C421.149 426.823 421 415.16 421 403.001ZM398.004 299.71C398.004 321.443 398.004 343.177 398.004 365.298C405.282 363.787 412.06 362.489 418.759 360.862C419.705 360.632 420.897 358.801 420.904 357.704C421.037 339.257 421.05 320.81 420.9 302.364C420.888 300.911 419.489 298.228 418.705 298.217C411.826 298.122 404.941 298.504 398.004 299.71Z" fill="white"/><path d="M690 369C690 336.507 690.082 304.514 689.904 272.522C689.879 268.112 691.118 266.777 695.53 266.902C706.186 267.204 716.856 267.051 727.52 266.971C731.042 266.945 733.13 268.072 734.093 271.816C736.526 281.273 738.923 290.78 742.145 299.982C745.315 309.036 749.371 317.79 753.244 326.585C756.844 334.76 760.701 342.821 764.5 350.907C764.738 351.412 765.453 351.692 767 352.9C767 350.297 767 348.625 767 346.953C767 322.292 767.115 297.629 766.895 272.97C766.855 268.426 768.243 266.854 772.699 266.94C782.693 267.132 792.694 267.055 802.69 266.964C805.44 266.939 807.05 267.431 807.045 270.741C806.961 326.227 806.96 381.713 806.928 437.198C806.928 437.333 806.744 437.468 806.197 438.22C803.739 437.843 800.886 437.589 798.122 436.949C788.436 434.705 778.812 432.181 769.097 430.072C765.143 429.214 763.721 427.598 762.747 423.31C758.95 406.595 755.025 389.826 749.614 373.587C745.259 360.518 738.714 348.176 733.082 335.537C732.539 334.321 731.581 333.289 729.999 330.981C729.999 344.734 729.999 356.981 729.999 369.229C729.999 385.225 730.002 401.222 729.998 417.218C729.996 422.874 729.466 423.018 723.893 422.095C716.046 420.796 708.114 420.017 700.221 418.996C696.996 418.579 693.779 418.11 690 417.588C690 401.719 690 385.61 690 369Z" fill="white"/><path d="M513.004 424.002C503.189 425.669 493.807 427.358 484.415 428.985C481.532 429.485 478.619 429.813 475.237 430.287C475.147 428.535 475.01 427.113 475.009 425.69C474.999 374.705 475.064 323.719 474.897 272.735C474.881 267.951 476.738 266.938 480.933 266.949C513.923 267.04 546.913 266.993 579.904 267.006C585.756 267.008 586.99 268.275 586.995 274.232C587.011 289.394 586.914 304.558 587.05 319.719C587.094 324.672 585.096 327.505 580.355 329.083C574.493 331.033 568.82 333.551 562.154 336.184C569.648 339.742 576.002 343.273 582.747 345.736C585.968 346.913 586.914 348.812 586.93 351.356C587.056 371.349 586.972 391.344 587.024 411.338C587.034 415.292 584.303 415.708 581.461 415.983C570.721 417.023 559.967 417.932 549.232 419.022C542.725 419.683 542.001 419.152 542 412.685C541.999 392.364 542 372.042 542 351.483C537.681 349.84 533.388 348.23 529.114 346.573C523.787 344.509 520.005 346.911 520.003 352.426C519.995 373.92 519.956 395.414 520.035 416.907C520.052 421.535 518.282 424.098 513.004 424.002ZM526.995 331.981C529.69 330.979 532.873 330.56 534.953 328.822C537.348 326.821 542.09 327.325 542.029 322.468C541.925 314.14 542.142 305.803 541.841 297.484C541.797 296.283 539.697 294.272 538.415 294.16C533.786 293.755 529.088 294.195 524.438 293.938C520.809 293.738 519.875 295.229 519.94 298.616C520.116 307.776 520.304 316.955 519.88 326.099C519.645 331.168 521.519 332.716 526.995 331.981Z" fill="white"/><path d="M980.001 440C980.001 445.664 980.659 450.935 979.844 455.967C978.677 463.173 982.511 466.172 988.123 468.652C996.839 472.504 1005.62 476.285 1013.97 480.836C1015.84 481.854 1016.53 485.873 1016.88 488.622C1017.36 492.387 1017.01 496.26 1016.99 500.086C1016.98 501.235 1016.8 502.383 1016.79 503.532C1016.79 506.216 1017.01 508.912 1016.83 511.582C1016.67 513.949 1016.08 516.287 1015.68 518.638C1013.86 517.994 1011.95 517.529 1010.23 516.678C997.069 510.165 984.039 503.391 970.791 497.072C959.718 491.79 948.344 487.143 937.266 481.871C935.702 481.126 934.138 478.433 934.134 476.638C933.975 408.504 934.011 340.37 933.97 272.237C933.967 268.419 935.602 266.952 939.362 266.963C963.517 267.035 987.672 267.05 1011.83 266.943C1015.2 266.928 1016.09 268.214 1016.05 271.375C1015.92 282.359 1016 293.346 1016 304.726C1004.15 304.726 992.411 304.726 980.33 304.726C980.201 306.348 980.047 307.604 980.009 308.864C979.662 320.444 979.28 332.024 979.023 343.605C978.894 349.416 978.773 355.248 979.17 361.035C979.265 362.428 981.222 364.468 982.686 364.864C991.053 367.125 999.474 369.296 1008 370.814C1011.37 371.414 1011.97 372.987 1011.99 375.611C1012.02 384.273 1012.14 392.939 1011.93 401.596C1011.85 404.742 1010.72 406.806 1006.52 405.31C997.956 402.256 989.185 399.77 980.001 396.895C980.001 411.295 980.001 425.398 980.001 440Z" fill="white"/><path d="M598 361C598 331.183 598.105 301.865 597.891 272.55C597.858 267.978 599.629 266.948 603.615 266.961C627.601 267.039 651.588 267.064 675.574 266.931C679.196 266.911 680.154 268.242 680.059 271.623C679.864 278.613 679.921 285.614 680.032 292.609C680.092 296.375 678.83 297.355 674.831 297.176C664.39 296.708 653.915 297.018 642.999 297.018C642.999 306.585 643.121 315.849 642.939 325.108C642.866 328.785 644.791 329.075 647.645 329.035C655.139 328.93 662.641 329.157 670.13 328.932C673.745 328.823 675.185 329.828 675.073 333.68C674.757 344.51 676.242 342.904 665.781 342.988C658.327 343.048 650.872 343 643.002 343C643.002 355.143 642.9 366.923 643.165 378.695C643.191 379.823 645.453 381.781 646.756 381.85C653.069 382.181 659.411 381.881 665.737 382.043C669.653 382.144 673.615 382.39 677.436 383.166C678.716 383.425 680.545 385.517 680.553 386.78C680.604 395.356 680.066 403.935 680.082 412.512C680.088 416.054 678.903 417.184 675.443 417.045C649.825 416.008 624.203 415.091 598 414.114C598 397.013 598 379.256 598 361Z" fill="white"/><path d="M584.007 479.907C583.196 481.753 582.427 483.186 581.453 485C576.129 485 570.486 485.173 564.867 484.872C563.546 484.801 561.553 483.373 561.161 482.154C559.01 475.462 557.211 468.653 555.407 461.854C554.959 460.165 554.94 458.362 553.623 456.665C554.068 464.036 554.266 471.434 555.049 478.769C555.535 483.32 554.308 485.929 549.51 487.007C546.842 487.606 544.028 488.045 541.337 487.834C540.152 487.742 538.161 485.866 538.144 484.776C537.927 470.619 537.857 456.454 538.215 442.303C538.252 440.831 541.106 438.496 542.932 438.182C547.921 437.324 553.056 437.26 558.14 437.02C563.552 436.764 564.863 437.975 566.874 445.737C568.847 453.347 570.524 461.034 572.43 469.105C574.715 460.983 576.872 453.285 579.064 445.597C579.192 445.147 579.734 444.81 579.847 444.361C582.452 434.001 582.446 433.995 593.152 434.002C597.483 434.005 601.814 434.033 606.144 434.065C606.275 434.066 606.404 434.235 606.997 434.649C606.997 442.927 606.873 451.538 607.039 460.144C607.157 466.229 607.581 472.313 608.034 478.385C608.288 481.778 607.194 483.277 603.566 483.084C601.19 482.958 598.779 483.773 596.369 483.916C593.533 484.085 591.847 483.122 591.935 479.706C592.138 471.716 592 463.718 591.151 455.471C588.784 463.478 586.416 471.486 584.007 479.907Z" fill="#FFFFFE"/><path d="M685.124 542.942C685.418 544.462 685.968 545.981 685.97 547.501C686.019 581.464 686.009 615.428 686.005 649.392C686.005 655.502 685.52 656.005 679.53 656.006C641.903 656.011 604.277 656.011 566.65 656.004C558.948 656.003 557.994 655.032 557.995 647.329C558 616.861 558.006 586.394 558.313 555.271C558.86 554.396 559.093 554.158 559.362 553.971C559.437 553.918 559.729 554.006 559.732 554.043C559.837 555.503 559.995 556.965 559.996 558.426C560.016 586.226 560.017 614.026 560.022 641.826C560.022 643.492 560.022 645.157 560.022 646.822C560.478 646.813 560.935 646.803 561.392 646.793C561.392 616.743 561.392 586.692 561.392 556.642C561.798 556.624 562.204 556.606 562.61 556.588C562.84 558.702 563.069 560.816 563.234 562.33C564.01 560.146 564.923 557.58 565.835 555.015C565.893 584.311 565.986 613.607 565.958 642.902C565.955 646.211 566.302 648.104 570.444 648.088C606.063 647.948 641.682 648.007 677.994 648.007C677.994 646.157 677.994 644.41 677.994 642.663C677.993 606.705 677.989 570.747 677.999 534.788C678 532.963 678.119 531.138 678.585 529.573C679.038 533.818 678.832 537.829 679.243 541.775C679.461 543.864 680.753 545.842 681.561 547.87C682.748 546.227 683.936 544.585 685.124 542.942ZM680.25 558.173C680.414 558.118 680.578 558.064 680.742 558.009C680.577 557.956 680.412 557.902 680.25 558.173Z" fill="#FAFCF9"/><path d="M810.659 491.327C808.043 489.545 805.435 487.75 802.808 485.984C794.428 480.349 793.065 467.57 801.189 461.817C804.51 459.465 810.568 459.216 814.805 460.287C823.718 462.54 832.34 466.075 840.91 469.511C847.105 471.995 849.987 477.838 852.63 483.445C853.368 485.01 852.618 487.621 851.774 489.379C851.522 489.903 848.618 489.232 846.95 488.973C845.532 488.753 844.145 488.337 842.333 487.725C840.871 486.765 839.819 486.088 838.527 485.135C832.297 475.792 822.191 476.561 813.088 474.128C813.211 476.232 813.582 478.722 814.667 479.086C822.338 481.662 830.156 483.803 838.067 486.405C839.491 487.138 840.774 487.548 842.058 487.957C848.232 492.64 853.253 497.966 853.018 506.484C852.775 515.25 847.123 519.42 838.494 517.176C830.291 515.043 821.867 513.573 813.893 510.799C805.436 507.857 798.862 502.203 796.099 493.193C794.741 488.767 796.521 486.905 800.98 488.042C804.054 488.825 807.026 490.008 810.625 491.387C812.333 493.461 813.109 496.14 814.648 496.692C821.767 499.247 829.098 501.211 836.354 503.386C836.72 503.008 837.085 502.629 837.451 502.251C836.504 500.597 835.88 497.861 834.557 497.467C826.68 495.12 818.643 493.314 810.659 491.327Z" fill="#FFFFFE"/><path d="M674.999 474.937C674.999 463.954 674.996 453.463 675 442.973C675.002 436.075 676.657 434.775 683.177 435.996C687.797 436.861 692.506 437.244 697.138 438.058C698.625 438.319 700.807 438.904 701.286 439.965C706.256 450.989 710.944 462.141 716.211 474.427C715.765 466.841 715.369 460.328 715.01 453.813C714.936 452.485 714.867 451.134 715.026 449.821C715.369 446.979 715.563 441.811 716.341 441.713C720.604 441.172 725.05 441.705 729.369 442.321C730.076 442.422 730.918 444.765 730.929 446.079C731.042 459.899 731.086 473.722 730.844 487.539C730.824 488.712 728.516 490.92 727.432 490.823C721.151 490.266 714.934 489.039 708.665 488.285C704.637 487.801 705.179 484.128 704.118 481.878C700.011 473.169 696.386 464.234 691.996 454.023C691.996 463.876 691.942 472.263 692.021 480.648C692.056 484.339 690.143 485.901 686.43 485.212C684.656 484.882 682.752 484.795 680.972 485.05C676.035 485.758 674.266 483.663 674.974 478.922C675.144 477.782 674.999 476.595 674.999 474.937Z" fill="#FFFFFE"/><path d="M433.815 460.638C441.244 459.452 448.759 458.695 452.556 466.345C455.945 473.172 455.824 480.789 454.243 488.315C451.531 501.222 443.572 508.283 430.807 511.174C421.804 513.213 413.049 516.417 404.28 519.387C400.147 520.787 398.935 519.474 398.963 515.448C399.059 502.141 398.899 488.831 399.127 475.527C399.155 473.872 400.577 471.226 401.936 470.768C412.373 467.253 422.954 464.164 433.815 460.638ZM438.597 479.074C438.238 477.715 437.88 476.356 437.349 474.346C429.867 476.361 422.595 478.268 415.375 480.356C414.742 480.539 414.08 481.909 414.065 482.74C413.954 488.798 414.006 494.86 414.006 501.53C419.678 499.869 424.551 498.328 429.488 497.031C433.823 495.892 437.906 494.644 438.33 489.194C438.571 486.1 438.759 483.001 438.597 479.074Z" fill="#FFFFFE"/><path d="M743.41 491.791C735.328 484.127 732.853 475.089 734.939 464.608C735.322 462.683 734.768 460.563 735.194 458.656C737.469 448.494 744.968 443.907 755.85 446.051C761.675 447.198 767.471 448.532 773.221 450.013C785.567 453.194 794.974 461.979 793.996 476.342C793.685 480.905 793.769 485.554 792.887 490.008C791.113 498.971 782.059 502.204 775.981 500.912C766.59 498.915 757.309 496.389 748.009 493.981C746.512 493.594 745.158 492.658 743.41 491.791ZM754.613 460.001C753.461 460.853 751.403 461.619 751.312 462.572C750.894 466.97 751.041 471.42 750.952 475.851C750.871 479.898 753.377 481.578 756.855 482.375C762.162 483.592 767.452 484.896 772.789 485.962C776.613 486.726 777.64 483.92 777.932 481.035C778.232 478.079 778.105 475.063 777.974 472.082C777.794 467.997 776.15 464.951 771.78 463.942C766.336 462.684 760.917 461.319 754.613 460.001Z" fill="#FFFFFE"/><path d="M489.282 460.002C484.459 461.003 479.956 461.661 475.766 463.18C474.196 463.749 473.354 466.324 471.453 469.013C482.664 466.566 492.007 464.528 501.67 462.42C502.21 465.186 502.924 467.205 502.94 469.231C502.988 475.118 501.214 476.33 495.392 477.113C488.718 478.012 482.122 479.62 475.585 481.282C474.313 481.605 473.464 483.589 472.419 484.808C472.735 485.289 473.051 485.77 473.367 486.25C475.175 485.846 476.98 485.427 478.791 485.039C486.64 483.358 494.481 481.632 502.355 480.081C503.308 479.893 505.222 480.458 505.374 481.025C506.148 483.927 507.08 487.013 506.743 489.893C506.566 491.414 504.098 493.493 502.35 493.874C488.826 496.818 475.219 499.379 461.653 502.13C458.219 502.827 456.849 501.376 457.011 498.125C457.306 492.216 457.925 486.31 457.928 480.403C457.932 474.661 457.161 468.922 457.041 463.175C456.87 455.067 458.51 453.44 466.401 451.972C475.252 450.325 484.044 448.357 492.872 446.579C495.878 445.973 498.947 445.01 501.926 445.196C503.677 445.306 506.574 447.209 506.731 448.562C507.069 451.489 508.65 455.714 503.83 456.958C499.177 458.158 494.432 459.001 489.282 460.002Z" fill="#FFFFFE"/><path d="M618.748 462.649C623.397 453.332 627.824 444.338 632.265 435.351C632.407 435.062 632.672 434.824 632.909 434.593C636.672 430.926 650.88 434.172 653.038 438.853C657.768 449.115 662.871 459.206 667.76 469.396C669.829 473.708 671.743 478.095 673.788 482.58C669.928 488.116 664.814 483.386 660.337 483.84C653.616 484.521 655.201 477.286 651.92 474.001C645.864 474.001 639.374 473.859 632.899 474.118C631.567 474.171 629.539 475.452 629.128 476.622C627.474 481.337 624.84 483.815 619.517 483.074C616.59 482.666 613.56 483.001 609.756 483.001C610.638 475.154 615.872 469.58 618.748 462.649ZM638.971 454.548C638.097 456.628 637.222 458.707 636.394 460.677C640.128 460.677 643.499 460.677 647.239 460.677C645.256 456.61 643.482 452.969 641.607 449.122C640.761 451.081 640.133 452.537 638.971 454.548Z" fill="#FFFFFE"/><path d="M678.141 207.995C678.141 187.884 678.141 167.773 678.141 147.331C640.732 147.331 603.597 147.331 565.969 147.331C565.969 165.577 565.969 183.818 565.543 202.438C564.562 200.893 564.007 198.968 563.312 196.552C563.073 198.343 562.892 199.703 562.712 201.062C562.277 201.054 561.842 201.046 561.408 201.038C561.408 185.735 561.408 170.431 561.408 155.128C560.944 155.131 560.481 155.134 560.017 155.137C560.017 156.768 560.018 158.399 560.017 160.03C560.013 173.195 560.069 186.361 559.922 199.525C559.906 201.021 558.755 202.505 558.131 203.994C558.086 184.018 558.082 164.042 557.952 144.066C557.933 141.084 558.888 139.944 561.973 139.95C601.931 140.021 641.889 140.028 681.847 139.941C685.233 139.934 686.08 141.244 686.055 144.386C685.937 159.203 686.078 174.022 685.955 188.839C685.919 193.255 685.324 197.666 684.541 202.538C682.87 201.765 681.644 200.533 680 198.881C680 200.352 680.235 202.228 679.924 204.009C679.682 205.399 678.761 206.671 678.141 207.995ZM680.01 185.587C680.01 188.31 680.01 191.034 680.01 193.758C680.219 193.738 680.428 193.718 680.637 193.698C680.637 188.901 680.637 184.104 680.637 179.307C680.428 179.313 680.219 179.319 680.01 179.325C680.01 181.108 680.01 182.891 680.01 185.587Z" fill="#FDFEFC"/><path d="M717.156 218.979C717.103 201.992 717.099 185.005 716.95 168.018C716.923 164.978 717.991 163.947 721.023 163.951C765.488 164.017 809.953 163.996 854.363 163.996C858.492 183.737 851.177 200.543 841.361 216.597C841.146 214.725 841.28 213.086 841.464 210.823C838.963 212.871 837.057 214.431 835.15 215.992C838.05 209.513 840.553 202.819 843.947 196.61C848.354 188.548 848.329 180.089 847.819 171.503C806.636 171.503 765.586 171.503 723.967 171.503C723.967 186.518 723.967 201.779 723.544 217.427C722.566 215.898 722.011 213.981 721.314 211.574C721.107 213.677 720.942 215.354 720.692 217.908C720.142 216.08 719.841 215.076 719.694 214.585C718.883 215.989 718.019 217.484 717.156 218.979Z" fill="#FCFEFC"/><path d="M834.036 559.883C839.028 570.955 844.237 581.936 848.924 593.136C851.414 599.087 852.999 605.416 854.48 612.013C853.644 616.497 853.003 620.549 853.091 624.585C853.169 628.163 851.87 629.226 848.461 629.043C839.699 628.573 830.927 628.099 822.157 628.048C799.214 627.913 776.269 627.908 753.326 628.048C743.89 628.105 734.458 628.663 725.024 629.001C723.978 629.038 722.934 629.123 721.843 629.188C722.343 630.34 722.667 631.085 722.991 631.831C718.687 632.542 716.856 631.223 716.895 626.37C717.117 598.57 717.02 570.768 717.356 542.64C721.387 543.681 721.317 546.841 721.098 549.839C722.032 548.547 722.948 547.283 723.863 546.018C723.863 571.808 723.863 597.599 723.863 623.694C765.233 623.694 806.28 623.694 847.51 623.694C849.543 613.856 846.904 604.798 842.486 595.822C837.642 585.98 833.471 575.808 829.402 565.441C830.919 565.987 832.04 566.872 833.212 567.797C833.524 564.805 833.78 562.344 834.036 559.883Z" fill="#FDFDFD"/><path d="M402.879 211.058C400.252 205.865 397.771 200.591 394.965 195.497C389.473 185.523 393.195 174.827 391.767 164.249C438.023 164.249 483.763 164.249 529.995 164.249C529.995 166.87 529.995 169.477 529.55 172.653C528.74 175.065 528.133 176.899 528.051 178.756C527.615 188.638 527.313 198.525 526.941 208.409C526.934 208.61 526.652 208.801 526.263 209.294C526.062 207.636 525.904 206.334 525.746 205.032C525.589 205.043 525.431 205.053 525.273 205.064C525.084 206.067 524.894 207.07 524.64 208.417C524.028 207.013 523.588 206.004 523.148 204.995C523.148 193.819 523.148 182.644 523.148 172.306C517.523 171.789 513.259 171.067 508.992 171.056C473.691 170.964 438.389 171.027 403.087 170.96C400.122 170.955 399.22 171.927 398.895 174.953C397.857 184.639 401.481 192.96 405.638 201.241C406.922 203.801 407.884 206.523 408.693 209.519C407.363 209.239 406.333 208.61 405.211 207.924C404.328 209.111 403.603 210.084 402.879 211.058Z" fill="#FCFEFC"/><path d="M415.096 573.084C410.192 584.099 404.782 594.926 400.608 606.21C398.645 611.515 399.06 617.7 398.363 623.785C440.41 623.785 481.449 623.785 523.009 623.785C523.009 620.464 523.009 617.193 523.487 613.441C524.642 611.527 525.864 610.109 525.905 608.657C526.108 601.504 525.997 594.342 525.997 587.183C525.997 585.339 525.997 583.494 525.997 581.65C526.522 581.636 527.046 581.622 527.571 581.608C527.711 582.947 527.969 584.285 527.972 585.623C528.004 598.443 527.832 611.265 528.089 624.08C528.171 628.151 526.819 629.248 522.958 629.06C512.522 628.552 502.071 628.118 491.625 628.095C482.818 628.075 474.011 628.892 465.202 628.955C445.477 629.096 425.751 628.998 406.025 628.997C402.978 628.997 399.932 628.997 396.765 628.997C397.346 630.343 397.669 631.09 397.991 631.837C393.636 632.738 391.497 631.482 391.918 626.533C392.31 621.926 392.389 617.218 391.906 612.629C391.269 606.584 393.944 601.866 396.509 596.8C400.747 588.427 404.385 579.751 408.746 571.363C409.312 573.196 409.406 574.868 409.512 576.742C411.543 575.411 413.32 574.248 415.096 573.084Z" fill="#FDFDFD"/><path d="M398.455 631.914C397.669 631.09 397.346 630.343 396.765 628.998C399.932 628.998 402.978 628.998 406.025 628.998C425.751 628.998 445.477 629.096 465.202 628.955C474.011 628.892 482.818 628.075 491.625 628.095C502.071 628.118 512.522 628.552 522.958 629.061C526.819 629.249 528.171 628.151 528.09 624.08C527.832 611.266 528.005 598.443 527.972 585.624C527.969 584.285 527.711 582.947 527.571 581.609C527.047 581.622 526.522 581.636 525.998 581.65C525.998 583.495 525.998 585.339 525.998 587.184C525.998 594.342 526.108 601.504 525.905 608.658C525.864 610.109 524.642 611.527 523.558 612.983C523.099 601.304 523.045 589.604 523.22 577.352C523.501 576.702 523.624 576.558 523.595 576.512C523.479 576.332 523.316 576.182 523.17 576.021C523.126 568.34 523.082 560.659 523.403 552.69C527.663 555.824 528.864 560.107 527.83 565.105C527.566 566.383 527.31 567.662 526.816 569.099C526.739 569.86 526.896 570.463 527.065 571.372C527.082 572.085 527.088 572.493 526.852 573.08C527.076 573.841 527.542 574.423 528.161 575.238C528.833 575.649 529.351 575.826 529.869 576.003C529.914 589.479 529.904 602.956 530.048 616.43C530.079 619.341 530.559 622.262 531.021 625.149C531.796 629.994 530.164 631.999 525.218 631.998C483.118 631.997 441.018 631.994 398.455 631.914Z" fill="#F2F9F1"/><path d="M723.456 631.907C722.668 631.085 722.344 630.34 721.844 629.188C722.935 629.123 723.979 629.038 725.025 629.001C734.459 628.663 743.891 628.105 753.327 628.048C776.27 627.908 799.215 627.913 822.158 628.048C830.928 628.099 839.7 628.573 848.462 629.043C851.871 629.226 853.169 628.163 853.091 624.585C853.004 620.549 853.645 616.497 854.408 612.406C854.907 614.964 854.966 617.567 854.766 620.821C854.709 624.329 854.912 627.188 855.116 630.047C853.423 630.695 851.732 631.905 850.037 631.909C807.998 632.011 765.959 631.986 723.456 631.907Z" fill="#F5FAF4"/><path d="M565.921 554.552C564.923 557.58 564.011 560.146 563.234 562.33C563.07 560.816 562.84 558.702 562.61 556.588C562.204 556.606 561.799 556.624 561.393 556.641C561.393 586.692 561.393 616.743 561.393 646.793C560.936 646.803 560.479 646.812 560.022 646.822C560.022 645.157 560.022 643.491 560.022 641.826C560.017 614.026 560.016 586.226 559.996 558.426C559.995 556.965 559.838 555.503 559.732 554.043C559.729 554.006 559.438 553.918 559.362 553.97C559.094 554.158 558.861 554.396 558.379 554.806C557.083 531.93 558.113 520.495 561.454 517.337C567.325 522.936 564.46 530.569 565.779 537.227C566.853 542.65 566.004 548.454 565.921 554.552Z" fill="#DFEFDB"/><path d="M558.048 204.368C558.756 202.505 559.906 201.021 559.923 199.525C560.069 186.361 560.014 173.195 560.018 160.03C560.018 158.399 560.018 156.768 560.018 155.137C560.481 155.134 560.945 155.131 561.408 155.128C561.408 170.431 561.408 185.735 561.408 201.038C561.843 201.046 562.277 201.055 562.712 201.063C562.893 199.703 563.074 198.343 563.312 196.552C564.008 198.968 564.562 200.893 565.477 202.902C565.512 215.329 565.188 227.671 564.855 240.332C557.205 239.28 559.439 234.467 558.996 230.047C558.699 221.764 558.415 214.39 558.131 207.016C558.076 206.258 558.021 205.499 558.048 204.368Z" fill="#E2F1DE"/><path d="M527.094 572.9C527.088 572.492 527.082 572.085 527.068 571.017C527.057 569.884 527.054 569.412 527.051 568.94C527.31 567.662 527.566 566.382 527.83 565.105C528.864 560.107 527.663 555.824 523.475 552.23C523.456 545.488 523.758 538.92 523.989 532.349C524.076 529.858 523.998 527.362 524.359 524.257C526.435 523.424 528.148 523.202 529.861 522.979C529.919 540.346 529.977 557.713 529.953 575.541C529.351 575.826 528.833 575.649 528.145 574.936C527.682 573.901 527.388 573.401 527.094 572.9Z" fill="#D8EBD4"/><path d="M523.068 205.402C523.587 206.005 524.027 207.014 524.639 208.417C524.894 207.07 525.083 206.067 525.273 205.064C525.43 205.054 525.588 205.043 525.746 205.033C525.904 206.335 526.062 207.637 526.263 209.295C526.651 208.801 526.933 208.61 526.941 208.409C527.312 198.525 527.614 188.638 528.05 178.757C528.132 176.9 528.74 175.066 529.487 173.108C529.924 174.074 529.978 175.153 529.705 176.841C529.538 178.628 529.699 179.804 529.859 180.98C529.915 182.713 529.971 184.446 529.67 186.914C529.493 193.092 529.672 198.534 529.851 203.977C529.901 213.463 530.11 222.953 529.843 232.43C529.799 233.984 527.659 235.479 526.487 237.001C525.658 235.508 524.198 234.053 524.103 232.513C523.554 223.622 523.326 214.712 523.068 205.402Z" fill="#E2F1DE"/><path d="M678.061 208.392C678.761 206.671 679.682 205.399 679.924 204.009C680.235 202.228 680 200.352 680 198.881C681.644 200.533 682.87 201.765 684.47 202.994C684.845 214.158 684.845 225.325 684.845 236.478C680.529 236.538 679.362 235.668 679.038 232.447C678.824 230.314 679.001 228.141 678.995 225.078C678.705 220.118 678.423 216.068 678.141 212.017C678.088 210.941 678.034 209.865 678.061 208.392Z" fill="#EBF6E8"/><path d="M685.074 542.48C683.936 544.585 682.748 546.227 681.561 547.87C680.753 545.842 679.461 543.864 679.243 541.775C678.832 537.829 679.038 533.818 678.975 529.361C679.275 522.857 677.813 516.47 682.244 511.262C682.812 511.252 683.38 511.243 683.948 511.233C684.306 521.495 684.665 531.756 685.074 542.48Z" fill="#EBF6E8"/><path d="M402.93 211.389C403.603 210.085 404.328 209.111 405.211 207.924C406.333 208.61 407.363 209.239 408.744 209.895C409.095 209.921 409.033 209.946 409.115 210.138C409.323 210.635 409.539 210.852 409.844 210.981C411.4 214.641 412.624 218.49 414.583 221.92C418.346 228.511 419.422 232.27 418.601 240.749C416.884 239.524 414.93 238.864 414.324 237.573C411.43 231.404 408.902 225.064 406.224 218.144C405.521 216.338 404.838 215.173 404.156 214.008C403.764 213.246 403.372 212.483 402.93 211.389Z" fill="#EBF6E8"/><path d="M723.946 545.554C722.949 547.283 722.033 548.547 721.098 549.839C721.318 546.841 721.388 543.681 717.422 542.178C717.625 533.364 718.089 524.684 718.585 515.401C724.466 517.908 723.525 522.604 723.844 526.194C724.401 532.449 724.017 538.788 723.946 545.554Z" fill="#D8EBD4"/><path d="M834.023 559.424C833.78 562.344 833.524 564.805 833.213 567.797C832.041 566.872 830.919 565.987 829.467 565.055C829.137 565.008 828.973 564.596 828.884 564.15C828.681 563.384 828.467 563.158 828.154 563.026C827.797 556.186 827.361 549.348 827.195 542.504C827.176 541.75 828.635 540.459 829.53 540.34C830.275 540.241 831.748 541.367 831.949 542.184C832.823 545.741 833.466 549.368 833.957 553.001C834.222 554.956 834.008 556.975 834.023 559.424Z" fill="#E2F1DE"/><path d="M717.07 219.417C718.02 217.484 718.883 215.988 719.694 214.584C719.842 215.076 720.143 216.079 720.692 217.908C720.943 215.354 721.108 213.677 721.314 211.573C722.011 213.98 722.566 215.897 723.483 217.889C723.904 218.432 723.963 218.898 723.787 219.789C723.35 220.537 723.442 220.786 723.831 220.962C723.557 226.312 723.443 231.68 722.874 236.999C722.758 238.075 720.918 238.967 719.873 239.945C719.247 238.94 718.162 237.976 718.07 236.925C717.572 231.247 717.32 225.547 717.07 219.417Z" fill="#D8EBD4"/><path d="M413.966 544.898C414.147 542.019 414.329 539.14 414.51 536.261C415.226 536.138 415.942 536.015 416.658 535.893C417.435 538.303 418.758 540.685 418.883 543.129C419.206 549.438 418.999 555.773 418.583 562.626C417.159 564.406 416.155 565.658 415.15 566.911C414.756 566.76 414.361 566.609 413.966 566.458C413.966 559.271 413.966 552.085 413.966 544.898Z" fill="#D8EBD4"/><path d="M834.994 216.336C837.057 214.431 838.964 212.871 841.465 210.823C841.281 213.086 841.147 214.725 841.031 216.751C839.082 221.539 837.117 225.938 834.664 230.706C830.728 232.723 830.473 230.141 829.965 227.895C831.589 224.157 833.213 220.419 834.994 216.336Z" fill="#EBF6E8"/><path d="M413.571 545.102C413.965 552.085 413.965 559.271 413.965 566.458C414.36 566.609 414.755 566.76 415.15 566.911C416.154 565.658 417.158 564.406 418.496 563.089C417.882 565.773 416.933 568.522 415.717 571.779C415.236 572.524 415.107 572.801 415.064 573.117C415.064 573.117 415.042 573.064 415.069 573.074C413.319 574.248 411.543 575.411 409.512 576.742C409.406 574.868 409.311 573.197 409.086 571.206C414.53 563.047 412.561 553.963 413.571 545.102Z" fill="#F2F9F1"/><path d="M829.579 228.1C830.474 230.141 830.729 232.723 834.513 231.041C833.88 234.124 834.316 238.161 829.193 239.421C829.193 235.379 829.193 231.842 829.579 228.1Z" fill="#FDFEFC"/><path d="M529.93 522.601C528.148 523.202 526.435 523.424 524.442 523.791C524.479 521.613 524.795 519.29 525.111 516.968C525.657 516.761 526.203 516.555 526.749 516.349C527.833 518.306 528.917 520.264 529.93 522.601Z" fill="#F5FAF4"/><path d="M558.068 207.48C558.414 214.39 558.698 221.764 558.975 229.612C558.644 226.15 558.209 222.219 558.029 218.277C557.871 214.84 558.002 211.389 558.068 207.48Z" fill="#FDFEFC"/><path d="M855.48 629.848C854.912 627.188 854.709 624.329 854.815 621.207C855.364 623.845 855.605 626.747 855.48 629.848Z" fill="#FDFDFD"/><path d="M529.917 203.514C529.673 198.534 529.493 193.092 529.587 187.34C529.9 192.371 529.941 197.712 529.917 203.514Z" fill="#FCFEFC"/><path d="M678.073 212.473C678.422 216.068 678.704 220.118 678.975 224.636C678.644 221.044 678.325 216.987 678.073 212.473Z" fill="#FDFEFC"/><path d="M404.084 214.355C404.838 215.173 405.521 216.338 406.08 217.805C405.309 216.972 404.661 215.837 404.084 214.355Z" fill="#FCFEFC"/><path d="M529.924 180.588C529.699 179.804 529.538 178.628 529.622 177.239C529.907 178.083 529.947 179.139 529.924 180.588Z" fill="#FCFEFC"/><path d="M828.121 563.293C828.467 563.158 828.68 563.384 828.878 563.928C828.671 563.955 828.38 563.758 828.121 563.293Z" fill="#FDFDFD"/><path d="M415.317 573.029C415.108 572.801 415.236 572.524 415.641 572.157C415.745 572.332 415.657 572.637 415.317 573.029Z" fill="#FDFDFD"/><path d="M523.1 576.259C523.316 576.182 523.479 576.332 523.594 576.512C523.624 576.558 523.5 576.702 523.302 576.888C523.157 576.976 523.03 576.497 523.1 576.259Z" fill="#FDFDFD"/><path d="M409.889 210.715C409.539 210.853 409.323 210.636 409.126 210.107C409.348 210.072 409.642 210.26 409.889 210.715Z" fill="#FCFEFC"/><path d="M723.892 220.736C723.443 220.787 723.35 220.537 723.698 220.133C723.844 220.054 723.954 220.51 723.892 220.736Z" fill="#FCFEFC"/><path d="M680.249 558.011C680.412 557.902 680.577 557.955 680.742 558.009C680.578 558.063 680.414 558.118 680.249 558.011Z" fill="#EBF6E8"/><path d="M680.451 552.533C680.484 552.589 680.418 552.477 680.451 552.533Z" fill="#EBF6E8"/><path d="M680.01 185.13C680.01 182.891 680.01 181.108 680.01 179.325C680.219 179.319 680.428 179.313 680.637 179.307C680.637 184.104 680.637 188.901 680.637 193.698C680.428 193.718 680.219 193.738 680.01 193.758C680.01 191.034 680.01 188.31 680.01 185.13Z" fill="#EBF6E8"/><path d="M526.853 573.08C527.388 573.401 527.682 573.901 527.991 574.703C527.542 574.423 527.077 573.841 526.853 573.08Z" fill="#FDFDFD"/><path d="M526.816 569.099C527.054 569.412 527.057 569.884 527.057 570.711C526.897 570.463 526.739 569.86 526.816 569.099Z" fill="#FDFDFD"/></svg>